<mxfile host="app.diagrams.net" modified="2023-08-02T13:00:48.254Z" agent="Mozilla/5.0 (Windows NT 10.0; Win64; x64) AppleWebKit/537.36 (KHTML, like Gecko) Chrome/112.0.0.0 Safari/537.36" version="21.3.3" etag="_uYv_u9Sa6NWROimsp02" type="github">
  <diagram name="Side-1" id="h3UQCykSLucMo4u0QpCr">
    <mxGraphModel>
      <root>
        <mxCell id="0" />
        <mxCell id="1" parent="0" />
      </root>
    </mxGraphModel>
  </diagram>
</mxfile>
